<svg xmlns="http://www.w3.org/2000/svg" width="50" height="51" viewBox="0 0 50 51">
    <g fill="none" fill-rule="evenodd" opacity=".676">
        <g fill="#FFF">
            <path d="M171 351.588c13.807 0 25 11.193 25 25s-11.193 25-25 25-25-11.193-25-25 11.193-25 25-25zm7.289 10.982h-15.905c-1.347 0-2.443 1.096-2.443 2.443v22.907c0 1.347 1.096 2.443 2.443 2.443h15.905c1.347 0 2.443-1.096 2.443-2.443v-6.462l6.525-6.444c.635-.634.635-1.668 0-2.303l-1.36-1.359c-.634-.635-1.667-.635-2.302 0l-2.863 2.863v-9.202c0-1.347-1.096-2.443-2.443-2.443zm0 1.628c.449 0 .814.366.814.815v10.83c-4.515 4.516-4.22 4.192-4.307 4.377l-2.15 4.606c-.144.31-.08.678.163.92.242.242.61.307.92.162l4.606-2.15c.17-.078.197-.127.768-.691v4.853c0 .449-.365.814-.814.814h-15.905c-.449 0-.814-.365-.814-.814v-22.907c0-.45.365-.815.814-.815h15.905zm4 10.762l1.345 1.344-6.115 6.038-2.45 1.144 1.143-2.447 6.078-6.079zm-11.057 1.56h-6.948c-.45 0-.814.365-.814.815 0 .45.364.814.814.814h6.948c.45 0 .814-.365.814-.814 0-.45-.364-.814-.814-.814zm13.514-4.016l1.36 1.36-1.314 1.296-1.35-1.351 1.304-1.305zm-10.908-.326h-9.554c-.45 0-.814.364-.814.814 0 .45.364.814.814.814h9.554c.45 0 .814-.364.814-.814 0-.45-.365-.814-.814-.814zm2.605-4.343h-12.159c-.45 0-.814.365-.814.815 0 .45.364.814.814.814h12.16c.449 0 .814-.365.814-.814 0-.45-.365-.815-.815-.815z" transform="translate(-146 -351)"/>
        </g>
    </g>
</svg>
